<?xml version="1.0" encoding="UTF-8" standalone="no"?>
<!-- Created with Inkscape (http://www.inkscape.org/) -->

<svg
   xmlns:dc="http://purl.org/dc/elements/1.1/"
   xmlns:cc="http://creativecommons.org/ns#"
   xmlns:rdf="http://www.w3.org/1999/02/22-rdf-syntax-ns#"
   xmlns:svg="http://www.w3.org/2000/svg"
   xmlns="http://www.w3.org/2000/svg"
   xmlns:sodipodi="http://sodipodi.sourceforge.net/DTD/sodipodi-0.dtd"
   xmlns:inkscape="http://www.inkscape.org/namespaces/inkscape"
   width="155.31055"
   height="50"
   id="svg3047"
   version="1.1"
   inkscape:version="0.48.5 r10040"
   sodipodi:docname="librebit.svg">
  <defs
     id="defs3049" />
  <sodipodi:namedview
     id="base"
     pagecolor="#ffffff"
     bordercolor="#666666"
     borderopacity="1.0"
     inkscape:pageopacity="0.0"
     inkscape:pageshadow="2"
     inkscape:zoom="0.98994949"
     inkscape:cx="-108.64718"
     inkscape:cy="69.169648"
     inkscape:document-units="px"
     inkscape:current-layer="layer1"
     showgrid="false"
     fit-margin-top="5"
     fit-margin-left="5"
     fit-margin-right="5"
     fit-margin-bottom="5"
     showborder="false"
     inkscape:showpageshadow="false"
     inkscape:window-width="1280"
     inkscape:window-height="1003"
     inkscape:window-x="1276"
     inkscape:window-y="-4"
     inkscape:window-maximized="1" />
  <metadata
     id="metadata3052">
    <rdf:RDF>
      <cc:Work
         rdf:about="">
        <dc:format>image/svg+xml</dc:format>
        <dc:type
           rdf:resource="http://purl.org/dc/dcmitype/StillImage" />
        <dc:title />
      </cc:Work>
    </rdf:RDF>
  </metadata>
  <g
     inkscape:label="Capa 1"
     inkscape:groupmode="layer"
     id="layer1"
     transform="translate(-282.34473,-610.21933)">
    <path
       inkscape:connector-curvature="0"
       id="path3106"
       style="font-size:21.28887367px;font-style:normal;font-variant:normal;font-weight:500;font-stretch:normal;line-height:125%;letter-spacing:0px;word-spacing:0px;fill:#0061a2;fill-opacity:1;fill-rule:evenodd;stroke:none;display:inline;font-family:Horatio D;-inkscape-font-specification:Horatio D Medium"
       d="m 305.47251,654.86271 0,-6.12184 -11.82764,0 0,-33.52154 -6.30014,0 0,33.46211 c 0,2.79346 0.29717,3.80386 1.36701,4.8737 1.12927,1.0104 2.25855,1.30757 4.81427,1.30757 l 11.9465,0" />
    <path
       inkscape:connector-curvature="0"
       id="path3108"
       style="font-size:21.28887367px;font-style:normal;font-variant:normal;font-weight:500;font-stretch:normal;line-height:125%;letter-spacing:0px;word-spacing:0px;fill:#0061a2;fill-opacity:1;fill-rule:evenodd;stroke:none;display:inline;font-family:Horatio D;-inkscape-font-specification:Horatio D Medium"
       d="m 313.48881,654.86271 0,-25.37889 -5.82466,0 0,25.37889 5.82466,0 m -2.91233,-36.43388 c -1.96136,0 -3.62555,1.6642 -3.62555,3.62556 0,1.96136 1.60475,3.62556 3.56612,3.62556 1.96137,0 3.68499,-1.6642 3.68499,-3.62556 0,-2.08024 -1.54533,-3.62556 -3.62556,-3.62556" />
    <path
       inkscape:connector-curvature="0"
       id="path3110"
       style="font-size:21.28887367px;font-style:normal;font-variant:normal;font-weight:500;font-stretch:normal;line-height:125%;letter-spacing:0px;word-spacing:0px;fill:#0061a2;fill-opacity:1;fill-rule:evenodd;stroke:none;display:inline;font-family:Horatio D;-inkscape-font-specification:Horatio D Medium"
       d="m 315.73975,615.21933 0,24.5468 c 0,5.11144 0.41605,7.13225 2.0208,9.62853 2.25855,3.56612 6.53789,5.82467 10.87667,5.82467 7.19168,0 13.13522,-5.94355 13.13522,-13.07578 0,-7.0728 -5.88411,-13.01636 -12.77861,-13.01636 -2.67458,0 -5.11144,0.89155 -7.42941,2.6746 l 0,-16.58246 -5.82467,0 m 12.83804,19.61366 c 4.16047,0 7.36999,3.20952 7.36999,7.31056 0,4.16047 -3.26896,7.36998 -7.42943,7.36998 -4.10103,0 -7.19168,-3.26895 -7.19168,-7.5483 0,-4.0416 3.15008,-7.13224 7.25112,-7.13224" />
    <path
       inkscape:connector-curvature="0"
       id="path3112"
       style="font-size:21.28887367px;font-style:normal;font-variant:normal;font-weight:500;font-stretch:normal;line-height:125%;letter-spacing:0px;word-spacing:0px;fill:#0061a2;fill-opacity:1;fill-rule:evenodd;stroke:none;display:inline;font-family:Horatio D;-inkscape-font-specification:Horatio D Medium"
       d="m 349.12437,654.86271 0,-13.37296 c 0,-4.87368 1.18872,-6.24071 5.58692,-6.53788 l 0,-5.64636 c -0.59435,-0.0594 -1.12927,-0.0594 -1.42644,-0.0594 -6.41902,0 -9.98515,3.80386 -9.98515,10.69836 l 0,14.91828 5.82467,0" />
    <path
       inkscape:connector-curvature="0"
       id="path3114"
       style="font-size:21.28887367px;font-style:normal;font-variant:normal;font-weight:500;font-stretch:normal;line-height:125%;letter-spacing:0px;word-spacing:0px;fill:#0061a2;fill-opacity:1;fill-rule:evenodd;stroke:none;display:inline;font-family:Horatio D;-inkscape-font-specification:Horatio D Medium"
       d="m 373.25382,646.66063 c -1.54532,1.90193 -3.44724,2.8529 -5.82466,2.8529 -3.2095,0 -5.8841,-1.90193 -6.95394,-4.8737 l 12.95692,0 c 2.85289,0 3.62555,-0.1783 4.75482,-1.0104 1.06984,-0.8321 1.66419,-2.08024 1.66419,-3.56612 0,-2.13968 -1.24814,-4.87371 -3.15008,-6.89451 -2.49628,-2.61515 -5.76522,-4.04161 -9.45021,-4.04161 -7.13224,0 -12.95692,5.82468 -12.95692,13.01636 0,7.0728 5.94355,13.07577 13.01635,13.07577 5.46805,0 10.28232,-3.38781 12.12481,-8.55869 l -6.18128,0 m -12.65972,-7.19168 c 1.1887,-2.91233 3.74443,-4.63596 6.83506,-4.63596 3.09064,0 5.76523,1.84251 6.71619,4.63596 l -13.55125,0" />
    <path
       inkscape:connector-curvature="0"
       id="path3116"
       style="font-size:39.02960205px;font-style:normal;font-variant:normal;font-weight:500;font-stretch:normal;line-height:125%;letter-spacing:0px;word-spacing:0px;fill:#00af00;fill-opacity:1;fill-rule:evenodd;stroke:none;display:inline;font-family:Horatio D;-inkscape-font-specification:Horatio D Medium"
       d="m 382.19873,615.21933 0,24.5468 c 0,5.11144 0.41605,7.13225 2.02081,9.62853 2.25853,3.56612 6.53789,5.82467 10.87667,5.82467 7.19167,0 13.13521,-5.94355 13.13521,-13.07578 0,-7.0728 -5.88411,-13.01636 -12.7786,-13.01636 -2.67459,0 -5.11145,0.89155 -7.42943,2.6746 l 0,-16.58246 -5.82466,0 m 12.83805,19.61366 c 4.16046,0 7.36997,3.20952 7.36997,7.31056 0,4.16047 -3.26894,7.36998 -7.42941,7.36998 -4.10104,0 -7.19168,-3.26895 -7.19168,-7.5483 0,-4.0416 3.15007,-7.13224 7.25112,-7.13224" />
    <path
       inkscape:connector-curvature="0"
       id="path3118"
       style="font-size:39.02960205px;font-style:normal;font-variant:normal;font-weight:500;font-stretch:normal;line-height:125%;letter-spacing:0px;word-spacing:0px;fill:#00af00;fill-opacity:1;fill-rule:evenodd;stroke:none;display:inline;font-family:Horatio D;-inkscape-font-specification:Horatio D Medium"
       d="m 415.5993,654.86271 0,-25.37889 -5.82465,0 0,25.37889 5.82465,0 m -2.91233,-36.43388 c -1.96135,0 -3.62555,1.6642 -3.62555,3.62556 0,1.96136 1.60476,3.62556 3.56612,3.62556 1.96136,0 3.68497,-1.6642 3.68497,-3.62556 0,-2.08024 -1.5453,-3.62556 -3.62554,-3.62556" />
    <path
       inkscape:connector-curvature="0"
       id="path3120"
       style="font-size:39.02960205px;font-style:normal;font-variant:normal;font-weight:500;font-stretch:normal;line-height:125%;letter-spacing:0px;word-spacing:0px;fill:#00af00;fill-opacity:1;fill-rule:evenodd;stroke:none;display:inline;font-family:Horatio D;-inkscape-font-specification:Horatio D Medium"
       d="m 432.65527,654.86271 0,-5.64636 -0.41605,0 c -3.74442,-0.0594 -4.93314,-1.36701 -4.93314,-5.28974 l 0,-8.85587 5.34919,0 0,-5.58692 -5.34919,0 0,-8.91531 -5.82466,0 0,8.91531 -4.33879,0 0,5.58692 4.33879,0 0,8.737 c 0,3.68499 0.59436,5.82466 2.0208,7.66716 1.8425,2.25854 4.57653,3.38781 8.20209,3.38781 l 0.95096,0" />
  </g>
</svg>
